<?xml version="1.0" encoding="utf-8"?>
<!-- Generator: Adobe Illustrator 25.2.3, SVG Export Plug-In . SVG Version: 6.00 Build 0)  -->
<svg version="1.1" id="Capa_2" xmlns="http://www.w3.org/2000/svg" xmlns:xlink="http://www.w3.org/1999/xlink" x="0px" y="0px"
	 viewBox="0 0 467.3 495.9" style="enable-background:new 0 0 467.3 495.9;" xml:space="preserve">
<style type="text/css">
	.st0{fill:#00FF00;}
	.st1{fill:#FF0000;}
</style>
<g id="Capa_2">
	<g>
		<g>
			<path class="st0" d="M5.7,231.5C11.3,137,83.4,20.4,227.6,9.1C391.9-3.8,458.8,139.8,458.8,139.8S363.4,18.3,202.7,51.8
				C41,85.6,5.7,231.5,5.7,231.5z"/>
			<path class="st0" d="M93.9,434.4c0,0-37.6-85.8-8.8-164c34.6-94,96.8-149.8,183.7-167.2c105.5-21.2,182.1,34.3,182.1,34.3
				S382.3,57,261.1,62.6C158.4,67.3,74.5,124,34.8,227.1c-22.7,59-12,110.9-12,110.9s8.1,21.7,25.9,48.1
				C65.1,410.6,93.9,434.4,93.9,434.4z"/>
			<path class="st0" d="M444.7,139c0,0-92.2-63.3-213.1-4.7C178.9,159.9,86.4,238.7,107,379c6.7,46,31.9,84.3,31.9,84.3
				s20.5,10.2,38.3,15.1c31.5,8.7,46.9,8.7,46.9,8.7s-52.6-63.7-46.3-149.5c5.4-75,47.3-126.4,79.2-153.3
				C343.6,111.2,444.7,139,444.7,139z"/>
			<path class="st0" d="M314.6,162.8c0,0-90.5,37.6-109.4,154c-16.3,100.7,54,170.7,54,170.7s61.5,1.9,122.3-42.5
				c62.6-45.6,79.9-94.1,79.9-94.1s-51.7,36.9-117.3,4.4c-38.9-19.3-67.1-60.2-65.4-113.7C280.4,193.1,314.6,162.8,314.6,162.8z"/>
		</g>
	</g>
	<g>
		<g>
			<path class="st1" d="M5.7,231.5C11.3,137,83.4,20.4,227.6,9.1C391.9-3.8,458.8,139.8,458.8,139.8S363.4,18.3,202.7,51.8
				C41,85.6,5.7,231.5,5.7,231.5z"/>
			<path class="st1" d="M93.9,434.4c0,0-37.6-85.8-8.8-164c34.6-94,96.8-149.8,183.7-167.2c105.5-21.2,182.1,34.3,182.1,34.3
				S382.3,57,261.1,62.6C158.4,67.3,74.5,124,34.8,227.1c-22.7,59-12,110.9-12,110.9s8.1,21.7,25.9,48.1
				C65.1,410.6,93.9,434.4,93.9,434.4z"/>
			<path class="st1" d="M444.7,139c0,0-92.2-63.3-213.1-4.7C178.9,159.9,86.4,238.7,107,379c6.7,46,31.9,84.3,31.9,84.3
				s20.5,10.2,38.3,15.1c31.5,8.7,46.9,8.7,46.9,8.7s-52.6-63.7-46.3-149.5c5.4-75,47.3-126.4,79.2-153.3
				C343.6,111.2,444.7,139,444.7,139z"/>
			<path class="st1" d="M314.6,162.8c0,0-90.5,37.6-109.4,154c-16.3,100.7,54,170.7,54,170.7s61.5,1.9,122.3-42.5
				c62.6-45.6,79.9-94.1,79.9-94.1s-51.7,36.9-117.3,4.4c-38.9-19.3-67.1-60.2-65.4-113.7C280.4,193.1,314.6,162.8,314.6,162.8z"/>
		</g>
	</g>
</g>
</svg>
